<mxfile host="app.diagrams.net" modified="2023-03-25T08:05:52.786Z" agent="5.0 (Windows NT 10.0; Win64; x64) AppleWebKit/537.36 (KHTML, like Gecko) Chrome/111.0.0.0 Safari/537.36" etag="tUk36Uhael2vS9X0nq43" version="21.0.10" type="github">
  <diagram name="第 1 页" id="KqZJQGMGyoWKxCwNAu3Z">
    <mxGraphModel dx="794" dy="516" grid="1" gridSize="10" guides="1" tooltips="1" connect="1" arrows="1" fold="1" page="1" pageScale="1" pageWidth="827" pageHeight="1169" math="0" shadow="0">
      <root>
        <mxCell id="0" />
        <mxCell id="1" parent="0" />
        <mxCell id="W8yUTUJcu3Xs8Bd42ZxN-1" value="用户" style="shape=umlActor;verticalLabelPosition=bottom;verticalAlign=top;html=1;outlineConnect=0;" vertex="1" parent="1">
          <mxGeometry x="110" y="125" width="70" height="140" as="geometry" />
        </mxCell>
        <mxCell id="W8yUTUJcu3Xs8Bd42ZxN-5" value="" style="rounded=1;whiteSpace=wrap;html=1;" vertex="1" parent="1">
          <mxGeometry x="310" y="45" width="180" height="300" as="geometry" />
        </mxCell>
        <mxCell id="W8yUTUJcu3Xs8Bd42ZxN-6" value="好友兴趣" style="ellipse;whiteSpace=wrap;html=1;" vertex="1" parent="1">
          <mxGeometry x="340" y="55" width="120" height="80" as="geometry" />
        </mxCell>
        <mxCell id="W8yUTUJcu3Xs8Bd42ZxN-7" value="历史兴趣" style="ellipse;whiteSpace=wrap;html=1;" vertex="1" parent="1">
          <mxGeometry x="340" y="155" width="120" height="80" as="geometry" />
        </mxCell>
        <mxCell id="W8yUTUJcu3Xs8Bd42ZxN-9" value="注册信息" style="ellipse;whiteSpace=wrap;html=1;" vertex="1" parent="1">
          <mxGeometry x="340" y="255" width="120" height="80" as="geometry" />
        </mxCell>
        <mxCell id="W8yUTUJcu3Xs8Bd42ZxN-11" value="推荐" style="html=1;shadow=0;dashed=0;align=center;verticalAlign=middle;shape=mxgraph.arrows2.arrow;dy=0.6;dx=40;flipH=1;notch=0;" vertex="1" parent="1">
          <mxGeometry x="200" y="160" width="100" height="70" as="geometry" />
        </mxCell>
        <mxCell id="W8yUTUJcu3Xs8Bd42ZxN-13" value="各类商品总集" style="shape=cylinder3;whiteSpace=wrap;html=1;boundedLbl=1;backgroundOutline=1;size=15;" vertex="1" parent="1">
          <mxGeometry x="620" y="82.5" width="130" height="225" as="geometry" />
        </mxCell>
        <mxCell id="W8yUTUJcu3Xs8Bd42ZxN-14" value="获取相似度" style="html=1;shadow=0;dashed=0;align=center;verticalAlign=middle;shape=mxgraph.arrows2.arrow;dy=0.6;dx=40;notch=0;" vertex="1" parent="1">
          <mxGeometry x="500" y="155" width="100" height="70" as="geometry" />
        </mxCell>
      </root>
    </mxGraphModel>
  </diagram>
</mxfile>
